<mxfile host="app.diagrams.net" agent="Mozilla/5.0 (Windows NT 10.0; Win64; x64) AppleWebKit/537.36 (KHTML, like Gecko) Chrome/135.0.0.0 Safari/537.36 Edg/135.0.0.0" version="26.1.3">
  <diagram name="第 1 页" id="V5452X9w4-ggYOXxJS9C">
    <mxGraphModel dx="1181" dy="652" grid="1" gridSize="10" guides="1" tooltips="1" connect="1" arrows="1" fold="1" page="1" pageScale="1" pageWidth="827" pageHeight="1169" math="0" shadow="0">
      <root>
        <mxCell id="0" />
        <mxCell id="1" parent="0" />
        <mxCell id="fYZ_GOnIte36mu-ZipSO-1" value="vring desc内存区域：&lt;div&gt;&lt;font style=&quot;font-size: 10px; color: rgb(242, 2, 2);&quot;&gt;(desc可以认为是静态分配)&lt;/font&gt;&lt;/div&gt;" style="rounded=0;whiteSpace=wrap;html=1;align=left;verticalAlign=top;" vertex="1" parent="1">
          <mxGeometry x="320" y="120" width="140" height="240" as="geometry" />
        </mxCell>
        <mxCell id="fYZ_GOnIte36mu-ZipSO-2" value="desc 1" style="rounded=0;whiteSpace=wrap;html=1;" vertex="1" parent="1">
          <mxGeometry x="330" y="170" width="120" height="20" as="geometry" />
        </mxCell>
        <mxCell id="fYZ_GOnIte36mu-ZipSO-3" value="desc 2" style="rounded=0;whiteSpace=wrap;html=1;" vertex="1" parent="1">
          <mxGeometry x="330" y="190" width="120" height="20" as="geometry" />
        </mxCell>
        <mxCell id="fYZ_GOnIte36mu-ZipSO-4" value="desc 3" style="rounded=0;whiteSpace=wrap;html=1;" vertex="1" parent="1">
          <mxGeometry x="330" y="210" width="120" height="20" as="geometry" />
        </mxCell>
        <mxCell id="fYZ_GOnIte36mu-ZipSO-5" value="desc 4" style="rounded=0;whiteSpace=wrap;html=1;" vertex="1" parent="1">
          <mxGeometry x="330" y="230" width="120" height="20" as="geometry" />
        </mxCell>
        <mxCell id="fYZ_GOnIte36mu-ZipSO-6" value="....." style="rounded=0;whiteSpace=wrap;html=1;" vertex="1" parent="1">
          <mxGeometry x="330" y="250" width="120" height="20" as="geometry" />
        </mxCell>
        <mxCell id="fYZ_GOnIte36mu-ZipSO-7" value="desc n-3" style="rounded=0;whiteSpace=wrap;html=1;" vertex="1" parent="1">
          <mxGeometry x="330" y="270" width="120" height="20" as="geometry" />
        </mxCell>
        <mxCell id="fYZ_GOnIte36mu-ZipSO-8" value="desc n-2" style="rounded=0;whiteSpace=wrap;html=1;" vertex="1" parent="1">
          <mxGeometry x="330" y="290" width="120" height="20" as="geometry" />
        </mxCell>
        <mxCell id="fYZ_GOnIte36mu-ZipSO-9" value="desc n-1" style="rounded=0;whiteSpace=wrap;html=1;" vertex="1" parent="1">
          <mxGeometry x="330" y="310" width="120" height="20" as="geometry" />
        </mxCell>
        <mxCell id="fYZ_GOnIte36mu-ZipSO-10" value="desc n" style="rounded=0;whiteSpace=wrap;html=1;" vertex="1" parent="1">
          <mxGeometry x="330" y="330" width="120" height="20" as="geometry" />
        </mxCell>
      </root>
    </mxGraphModel>
  </diagram>
</mxfile>
